<?xml version="1.0" standalone="no"?>
<!DOCTYPE svg PUBLIC "-//W3C//DTD SVG 20010904//EN"
 "http://www.w3.org/TR/2001/REC-SVG-20010904/DTD/svg10.dtd">
<svg version="1.0" xmlns="http://www.w3.org/2000/svg"
 width="152.000000pt" height="152.000000pt" viewBox="0 0 152.000000 152.000000"
 preserveAspectRatio="xMidYMid meet">
<metadata>
Created by potrace 1.11, written by Peter Selinger 2001-2013
</metadata>
<g transform="translate(0.000000,152.000000) scale(0.100000,-0.100000)"
fill="#000000" stroke="none">
<path d="M240 835 l0 -305 65 0 65 0 0 99 c0 54 3 113 6 130 l7 31 123 0 124
0 0 50 0 50 -130 0 -130 0 0 39 c0 21 3 53 6 70 l7 31 143 0 144 0 0 55 0 55
-215 0 -215 0 0 -305z"/>
<path d="M750 837 c0 -255 3 -311 16 -353 41 -121 117 -162 219 -115 67 30 69
38 45 130 -13 49 -26 78 -33 76 -7 -2 -31 -9 -54 -15 -28 -7 -43 -16 -43 -26
0 -13 8 -14 39 -9 l39 6 12 -51 c14 -59 7 -73 -44 -90 -58 -19 -100 10 -127
89 -13 37 -3 51 39 51 18 0 22 5 22 34 0 18 3 54 6 80 7 47 7 48 39 42 24 -5
34 -2 38 8 6 16 -12 26 -48 26 -30 0 -36 10 -29 49 l7 31 118 0 119 0 0 -56
c0 -41 -5 -63 -20 -81 -39 -50 -15 -178 41 -217 49 -34 144 -12 167 39 24 53
1 176 -37 199 -7 5 -11 79 -11 232 l0 224 -70 0 -70 0 0 -115 0 -115 -125 0
-125 0 0 115 0 115 -65 0 -65 0 0 -303z m539 -304 c2 -68 -77 -99 -118 -47
-12 15 -21 31 -21 35 0 5 27 9 60 9 l60 0 1 38 c0 30 2 33 9 17 5 -11 9 -35 9
-52z"/>
<path d="M515 630 c-17 -5 -44 -23 -59 -39 -26 -28 -27 -31 -11 -37 11 -5 22
-2 29 8 29 39 92 50 119 20 38 -42 16 -134 -59 -254 -29 -46 -32 -82 -6 -74 9
3 56 15 105 27 68 17 87 25 87 39 0 16 -4 16 -77 -1 -42 -10 -79 -17 -81 -15
-2 3 15 35 37 72 23 38 46 86 52 108 26 97 -45 173 -136 146z"/>
</g>
</svg>
