<svg xmlns="http://www.w3.org/2000/svg" viewBox="0 0 301 74"><g fill="#DA1F3D"><path d="M85.135 58.825v-7.316h1.387v7.316c0 2.477.436 3.111 2.158 3.111.567 0 1.201-.168 1.52-.285l1.47-.568v-9.574h1.354v9.727c0 .633.1 1.77.1 1.77h-.951a3.249 3.249 0 0 1-.367-.768l-1.621.65c-.42.168-1.137.352-1.723.352-2.592-.001-3.327-1.257-3.327-4.415zM95.93 56.372c0-.586-.099-1.723-.099-1.723h.883c.15.25.235.416.369.803l1.47-.736a2.904 2.904 0 0 1 1.303-.301c1.34 0 2.208.65 2.208 2.49v6.1h-1.286v-5.6c0-1.336-.219-1.754-1.205-1.754-.467 0-.751.135-.751.135l-1.622.666v6.553h-1.27v-6.633zM104.403 52.292a.876.876 0 1 1 1.754 0 .915.915 0 0 1-.885.887c-.452 0-.869-.418-.869-.887zm.232 2.357h1.271v8.355h-1.271v-8.355zM107.645 54.649h1.419l2.175 6.602.117.533.117-.533 1.887-6.602h1.289l-2.609 8.355h-1.504l-2.891-8.355zM115.815 58.911c0-3.961 1.954-4.496 3.192-4.496 1.372 0 3.192.469 3.192 3.609v1.07h-5.063c.051 2.406.699 2.941 1.937 2.941s2.54-.584 2.54-.584l.419 1.018s-1.305.77-3.209.77c-1.235 0-3.008-.418-3.008-4.328zm5.063-.887c0-1.871-.75-2.525-1.805-2.525-1.171 0-1.886.756-1.937 2.525h3.742zM124.438 56.187c0-.369-.101-1.537-.101-1.537h.917c.136.283.269.719.353 1.07l1.104-.902c.301-.234.584-.402 1.171-.402.301 0 .6.084.818.184l-.385 1.219a2.003 2.003 0 0 0-.601-.098c-.352 0-.638.199-.654.199l-1.353.869v6.217h-1.27v-6.819zM129.583 62.437l.418-1.02s1.303.619 2.541.619c.768 0 1.655-.135 1.655-1.17 0-.42-.201-.869-.687-1.104-.618-.301-1.504-.617-2.324-1.004-.834-.416-1.304-.984-1.304-2.105 0-1.369.971-2.238 2.628-2.238.884 0 1.902.25 2.688.719l-.418 1.02c-.584-.367-1.505-.602-2.271-.602-.988 0-1.425.4-1.425 1.121 0 .4.185.699.487.883.718.42 1.688.703 2.64 1.188.72.352 1.271.938 1.271 2.123 0 1.654-1.153 2.373-2.691 2.373-1.903-.001-3.208-.803-3.208-.803zM137.504 52.292a.878.878 0 1 1 1.755 0 .914.914 0 0 1-.885.887c-.451 0-.87-.418-.87-.887zm.235 2.357h1.27v8.355h-1.27v-8.355zM142.183 60.915v-5.162h-1.27v-1.104h1.27v-2.09l1.27-.25v2.34h1.989v1.104h-1.989v5.18c0 .955.118 1.188.787 1.188.468 0 1.152-.219 1.152-.219l.301.92s-.953.387-1.654.387c-1.371-.001-1.856-.403-1.856-2.294zM146.36 66.433l.302-.953s.585.166 1.122.166c.767 0 1.136-.418 1.369-1.068l.468-1.572-3.026-8.355h1.438l2.124 6.133.1.535.101-.535 1.921-6.133h1.27l-3.309 10.463c-.366 1.152-1.136 1.619-2.139 1.619-.902-.002-1.741-.3-1.741-.3zM159.063 58.911c0-3.846 2.139-4.496 3.492-4.496 1.371 0 3.51.65 3.51 4.496 0 3.676-2.072 4.328-3.51 4.328-1.422 0-3.492-.652-3.492-4.328zm5.664 0c0-2.523-.902-3.393-2.223-3.393-1.188 0-2.107.869-2.107 3.393 0 2.541.92 3.225 2.223 3.225 1.136 0 2.107-.684 2.107-3.225zM168.734 55.753h-1.252v-1.104h1.252v-1.84c0-1.535.721-2.305 1.906-2.305.904 0 1.738.35 1.738.35l-.299.902s-.586-.166-1.189-.166c-.65 0-.885.416-.885 1.354v1.705h2.006v1.104h-2.006v7.252h-1.271v-7.252zM180.883 51.509h1.438l3.879 11.496h-1.521l-1.053-3.141h-4.279l-1.035 3.141h-1.354l3.925-11.496zm2.375 7.234l-1.621-4.947-.133-.818-.102.818-1.672 4.947h3.528zM187.92 56.421c0-.635-.102-1.771-.102-1.771h.885c.117.184.186.352.285.602l1.555-.602s.518-.234 1.121-.234c1.451 0 2.639 1.119 2.639 4.41 0 3.744-2.037 4.414-3.324 4.414a3.24 3.24 0 0 1-1.789-.518v3.727l-1.27.283V56.421zm5.047 2.404c0-1.635-.354-3.242-1.439-3.242-.482 0-.852.152-.852.152l-1.486.484v5.299c.268.25.734.535 1.604.535 1.269.001 2.173-.736 2.173-3.228zM196.625 56.421c0-.635-.102-1.771-.102-1.771h.887c.115.184.184.352.285.602l1.553-.602s.52-.234 1.121-.234c1.453 0 2.641 1.119 2.641 4.41 0 3.744-2.041 4.414-3.326 4.414-.803 0-1.354-.25-1.789-.518v3.727l-1.27.283V56.421zm5.047 2.404c0-1.635-.35-3.242-1.436-3.242-.486 0-.854.152-.854.152l-1.488.484v5.299c.27.25.736.535 1.604.535 1.27.001 2.174-.736 2.174-3.228zM205.332 61.032V50.806l1.27-.301v10.428c0 .818.066 1.188.533 1.188.42 0 .82-.137.82-.137l.316.873s-.648.352-1.387.352c-1.185-.001-1.552-.605-1.552-2.177zM209.693 52.292c0-.518.414-.885.867-.885.467 0 .887.367.887.885 0 .469-.42.887-.887.887-.453 0-.867-.418-.867-.887zm.235 2.357h1.27v8.355h-1.27v-8.355zM213.451 58.911c0-3.961 1.955-4.496 3.193-4.496 1.369 0 3.191.469 3.191 3.609v1.07h-5.064c.051 2.406.703 2.941 1.939 2.941 1.238 0 2.541-.584 2.541-.584l.418 1.018s-1.305.77-3.209.77c-1.235 0-3.009-.418-3.009-4.328zm5.065-.887c0-1.871-.752-2.525-1.805-2.525-1.172 0-1.889.756-1.939 2.525h3.744zM221.758 58.843c0-3.809 1.922-4.428 3.375-4.428.818 0 1.453.336 1.84.602v-4.211l1.285-.301v10.73c0 .633.102 1.77.102 1.77h-.904a3.676 3.676 0 0 1-.334-.617l-1.82.686c-.268.1-.604.166-.92.166-1.439-.001-2.624-1.12-2.624-4.397zm3.56 3.111l1.654-.484v-5.301c-.268-.234-.771-.586-1.639-.586-1.32 0-2.258.721-2.258 3.26 0 1.021.1 3.225 1.422 3.225.384-.001.821-.114.821-.114zM234.355 62.37l.436-1.135c.736.334 1.67.734 3.008.734 1.422 0 2.191-.635 2.191-1.904 0-1.055-.504-1.572-1.104-1.855-.906-.42-1.605-.637-2.592-1.119-1.053-.535-1.721-1.223-1.721-2.809 0-1.855 1.303-3.008 3.24-3.008 1.205 0 2.324.367 3.309.801l-.482 1.055c-.768-.32-1.705-.654-2.793-.654-1.252 0-1.904.721-1.904 1.822 0 .82.385 1.27.854 1.52.885.486 1.621.703 2.689 1.188 1.004.451 1.955 1.271 1.955 3.076 0 2.021-1.42 3.158-3.477 3.158-1.669-.001-2.907-.536-3.609-.87zM243.096 58.743c0-3.91 2.123-4.328 3.193-4.328 1.051 0 2.004.318 2.438.518l-.434 1.002c-.383-.166-1.135-.367-1.953-.367-1.172 0-1.924.871-1.924 3.227 0 2.289.584 3.26 1.855 3.26 1.035 0 1.756-.27 2.172-.451l.4.967c-.5.252-1.402.67-2.807.67-1.337-.002-2.94-.588-2.94-4.498zM250.48 52.292c0-.518.418-.885.869-.885.469 0 .889.367.889.885 0 .469-.42.887-.889.887-.451 0-.869-.418-.869-.887zm.237 2.357h1.268v8.355h-1.268v-8.355zM254.242 58.911c0-3.961 1.955-4.496 3.191-4.496 1.369 0 3.191.469 3.191 3.609v1.07h-5.063c.051 2.406.699 2.941 1.938 2.941 1.236 0 2.539-.584 2.539-.584l.42 1.018s-1.307.77-3.209.77c-1.237 0-3.007-.418-3.007-4.328zm5.065-.887c0-1.871-.752-2.525-1.807-2.525-1.17 0-1.887.756-1.938 2.525h3.745zM262.865 56.372c0-.586-.102-1.723-.102-1.723h.885c.15.25.234.416.367.803l1.473-.736c.4-.199.834-.301 1.301-.301 1.338 0 2.207.65 2.207 2.49v6.1h-1.285v-5.6c0-1.336-.219-1.754-1.205-1.754-.467 0-.752.135-.752.135l-1.621.666v6.553h-1.268v-6.633zM271.152 58.743c0-3.91 2.121-4.328 3.193-4.328 1.051 0 2.004.318 2.439.518l-.436 1.002c-.383-.166-1.139-.367-1.955-.367-1.172 0-1.924.871-1.924 3.227 0 2.289.586 3.26 1.855 3.26 1.035 0 1.758-.27 2.174-.451l.4.967c-.5.252-1.402.67-2.809.67-1.333-.002-2.937-.588-2.937-4.498zM278.354 58.911c0-3.961 1.955-4.496 3.193-4.496 1.369 0 3.191.469 3.191 3.609v1.07h-5.066c.051 2.406.705 2.941 1.939 2.941 1.238 0 2.541-.584 2.541-.584l.42 1.018s-1.305.77-3.213.77c-1.232 0-3.005-.418-3.005-4.328zm5.064-.887c0-1.871-.752-2.525-1.807-2.525-1.17 0-1.889.756-1.939 2.525h3.746zM286.26 62.437l.416-1.02s1.305.619 2.539.619c.771 0 1.654-.135 1.654-1.17a1.2 1.2 0 0 0-.682-1.104c-.621-.301-1.504-.617-2.326-1.004-.836-.416-1.303-.984-1.303-2.105 0-1.369.971-2.238 2.623-2.238.889 0 1.906.25 2.691.719l-.418 1.02c-.586-.367-1.502-.602-2.273-.602-.986 0-1.418.4-1.418 1.121 0 .4.182.699.482.883.721.42 1.688.703 2.643 1.188.719.352 1.27.938 1.27 2.123 0 1.654-1.152 2.373-2.693 2.373-1.904-.001-3.205-.803-3.205-.803z"/></g><path fill="#000" d="M8.693 9.694h15.989v4.018h-11.35v9.277h10.687v3.931H13.332v13.163H8.693zM30.734 9.694h4.636v12.499h11.087V9.694h4.638v30.389h-4.638v-14.09H35.37v14.09h-4.636z"/><path fill="#DA1F3D" d="M65.897 9.694v53.278h4.329V9.694z"/><path fill="#000" d="M137.309 9.694h-5.081l-9.935 30.389h4.636l2.429-7.819h10.248l2.476 7.819h5.165l-9.938-30.389zm-6.89 18.949l3.708-11.397.398-2.693.441 2.693 3.577 11.397h-8.124z"/><g fill="#000"><path d="M108.157 9.075c-6.58 0-11.749 3.27-11.749 15.99 0 12.809 4.903 15.635 11.749 15.635 6.804 0 11.707-2.826 11.707-15.635 0-12.72-4.948-15.99-11.707-15.99m0 27.739c-5.606 0-6.933-4.683-6.933-11.749 0-7.509 1.5-12.102 6.933-12.102 5.521 0 6.893 4.593 6.893 12.102-.001 7.066-1.328 11.749-6.893 11.749M151.104 9.694h6.449l9.937 21.025 1.192 4.24-.264-4.374V9.694h4.639v30.389h-6.008l-10.248-21.202-1.414-4.417.308 4.46v21.159h-4.591zM180.387 9.694h6.449l9.937 21.025 1.192 4.24-.266-4.374V9.694h4.639v30.389h-6.006l-10.248-21.202-1.412-4.417.31 4.46v21.159h-4.595zM209.67 9.694h16.697v4.018h-12.06v8.659h10.955v3.93h-10.955v9.54h12.5v4.242H209.67zM232.416 28.952V9.695h4.684v19.168c0 6.051 1.016 7.554 4.99 7.554 1.412 0 2.871-.354 3.842-.707l3.316-1.236V9.695h4.633v25.441c0 1.589.266 4.947.266 4.947h-3.314a10.813 10.813 0 0 1-1.057-2.033l-4.021 1.68c-1.232.529-3.09.971-4.727.971-6.803-.001-8.612-3.359-8.612-11.749M262.76 9.694h6.845l6.141 22.261.617 3.755.619-3.755 5.961-22.261h6.627l2.473 30.389h-4.768l-1.638-21.159-.129-4.814-.795 4.814-6.051 21.159h-4.949l-5.963-21.159-.885-4.814-.131 4.814-1.675 21.159h-4.727zM85.029 9.694v24.054c0 4.683-2.358 5.759-5.097 6.953l1.411 3.506c4.007-1.291 8.368-2.861 8.368-10.018V9.694h-4.682z"/></g></svg>